inDegrees=yes
name=ik_S57_A07_T01
DataType=double
version=3
OpenSimVersion=4.3-2021-08-27-4bc7ad9
endheader
time	pelvis_tilt	pelvis_list	pelvis_rotation	pelvis_tx	pelvis_ty	pelvis_tz	hip_flexion_r	hip_adduction_r	hip_rotation_r	knee_angle_r	knee_angle_r_beta	ankle_angle_r	subtalar_angle_r	mtp_angle_r	hip_flexion_l	hip_adduction_l	hip_rotation_l	knee_angle_l	knee_angle_l_beta	ankle_angle_l	subtalar_angle_l	mtp_angle_l	lumbar_extension	lumbar_bending	lumbar_rotation	arm_flex_r	arm_add_r	arm_rot_r	elbow_flex_r	pro_sup_r	wrist_flex_r	wrist_dev_r	arm_flex_l	arm_add_l	arm_rot_l	elbow_flex_l	pro_sup_l	wrist_flex_l	wrist_dev_l
12.79999999999982	-6.9230667578728	-5.381958213709303	21.81069904212249	0	0.9399999999999999	0	28.79953602743998	-9.436949635269663	-8.486909127132089	32.96785849651034	0.5753976780956929	0	0	0	28.79953602743998	-9.436949635269663	-8.486909127132089	32.96785849651034	0.5753976780956929	0	0	0	-7.488177619194543	-3.978819850235833	4.227895140702248	59.68436671092594	1.765954972348186	4.067373594802223	109.4424413005166	111.3336158276462	0	0	17.88958939822832	-10.18095503481508	12.71812029150146	49.04970423311604	125.0937156256824	0	0
12.81999999999982	-6.919896644614775	-5.38592626758681	21.7989979571879	0	0.9399999999999999	0	28.86744477176966	-9.443948863324154	-8.499696713887456	33.03515643585066	0.576572248716989	0	0	0	28.86744477176966	-9.443948863324154	-8.499696713887456	33.03515643585066	0.576572248716989	0	0	0	-7.487734823592959	-3.982218172511303	4.234714062174404	59.68189729231571	1.779117641420295	4.033792589295695	109.1723685878316	111.2964998980031	0	0	17.87814946239541	-10.19312290937837	12.73101531202643	49.08303626339215	125.0542077365938	0	0
12.83999999999982	-6.90297255361024	-5.383881073263996	21.82542046396513	0	0.9399999999999999	0	28.91760897749441	-9.449865947683792	-8.509810063875815	33.08416558886567	0.5774276198007144	0	0	0	28.91760897749441	-9.449865947683792	-8.509810063875815	33.08416558886567	0.5774276198007144	0	0	0	-7.472969852403444	-3.983672357413878	4.226555479536386	59.5842590576486	1.791867282233921	3.998772076480805	109.0298636925146	111.2488641250555	0	0	17.87588999074694	-10.1868919619198	12.74020211450992	49.09558257067878	125.0342755291745	0	0
12.85999999999981	-6.882733413278202	-5.385636614679449	21.8597176230946	0	0.9399999999999999	0	28.98822950893456	-9.458032830115535	-8.523928251236807	33.15323259047122	0.5786330663832117	0	0	0	28.98822950893456	-9.458032830115535	-8.523928251236807	33.15323259047122	0.5786330663832117	0	0	0	-7.456588849541523	-3.989719523958203	4.22199806061968	59.52110878369942	1.808010738729548	3.936398585155134	108.6758658245649	111.1600824593313	0	0	17.83715476136847	-10.19040403520831	12.76331649467187	49.07473126102058	125.0438754971422	0	0
12.87999999999981	-6.863006521200568	-5.382025681959385	21.90800764750775	0	0.9399999999999999	0	28.99299474430167	-9.458563180426363	-8.524860292121813	33.15797366870704	0.5787158138085212	0	0	0	28.99299474430167	-9.458563180426363	-8.524860292121813	33.15797366870704	0.5787158138085212	0	0	0	-7.438051141987284	-3.991483814088101	4.207999336143867	59.44647825045733	1.805364383659047	3.852765243196062	108.3674581181098	111.0267107546427	0	0	17.81418173516434	-10.18320673736013	12.71553902987685	49.07286337035862	125.0550266953046	0	0
12.89999999999981	-6.853894610038961	-5.379717278351428	21.92800153575736	0	0.9399999999999999	0	28.99707028980526	-9.459012839350462	-8.525653119977683	33.16205768914231	0.5787870934118354	0	0	0	28.99707028980526	-9.459012839350462	-8.525653119977683	33.16205768914231	0.5787870934118354	0	0	0	-7.428688544376816	-3.992652971832285	4.2079984549323	59.38910880215941	1.825948621102217	3.815838607289372	107.9740321405886	110.8731279846571	0	0	17.79216781227093	-10.18582574145006	12.73101959917283	49.07107956265985	125.0570891967288	0	0
12.91999999999981	-6.842357896929544	-5.376076996971363	21.98851270170533	0	0.9399999999999999	0	29.0013839806125	-9.459492319864367	-8.526496354476414	33.16634950185146	0.5788619996744891	0	0	0	29.0013839806125	-9.459492319864367	-8.526496354476414	33.16634950185146	0.5788619996744891	0	0	0	-7.418238129406392	-3.990420624585767	4.189326457769048	59.34448211820614	1.843505145097567	3.757629168246661	107.5081622278034	110.6932947856947	0	0	17.78728945564147	-10.16551338772898	12.69845913040333	49.08297460433526	125.0573437480205	0	0
12.93999999999981	-6.836730177269488	-5.371772081455669	21.97911375174841	0	0.9399999999999999	0	29.00615754639729	-9.460016148019054	-8.527421944340151	33.17115161883532	0.5789458124269234	0	0	0	29.00615754639729	-9.460016148019054	-8.527421944340151	33.17115161883532	0.5789458124269234	0	0	0	-7.411676561516181	-3.987738269495119	4.186507316622404	59.3131636828734	1.904510553631834	3.711358464351012	106.9265340025179	110.4890597660067	0	0	17.7852738162216	-10.15199198219121	12.67856849147084	49.07172792296213	125.0762097843522	0	0
12.95999999999981	-6.818008338082527	-5.372076092255966	21.9877127805929	0	0.9399999999999999	0	29.01105611728528	-9.460552107000071	-8.528370093620024	33.17608962850146	0.5790319969540928	0	0	0	29.01105611728528	-9.460552107000071	-8.528370093620024	33.17608962850146	0.5790319969540928	0	0	0	-7.394743047885698	-3.993976545604091	4.180782349408743	59.25958739174524	1.970284837739759	3.630200809592573	106.2916343101772	110.1708599658571	0	0	17.77867409574213	-10.17035553822651	12.69069076311457	49.04321601349467	125.0668303298634	0	0
12.97999999999981	-6.809576875996697	-5.372403981434534	22.05447493122487	0	0.9399999999999999	0	29.01724861009612	-9.461238285316814	-8.529578552753428	33.18225889749367	0.5791396710104482	0	0	0	29.01724861009612	-9.461238285316814	-8.529578552753428	33.18225889749367	0.5791396710104482	0	0	0	-7.390026504646693	-3.991776973547177	4.147337922930808	59.22629684140521	2.026114983355968	3.593464190969135	105.5654509678207	109.7992773447511	0	0	17.81163462120592	-10.17334113148854	12.73362293930551	49.02843436748486	125.0484964027786	0	0
12.99999999999981	-6.780376918395008	-5.368783613988962	22.13260144927558	0	0.9399999999999999	0	29.02171093181022	-9.461730062653293	-8.530446489572212	33.18672272594473	0.5792175795141634	0	0	0	29.02171093181022	-9.461730062653293	-8.530446489572212	33.18672272594473	0.5792175795141634	0	0	0	-7.363610379235821	-3.995373970606479	4.120815712822262	59.10842429289273	2.07146288002898	3.53472909430772	104.7976561122226	109.4597410981623	0	0	17.77618271429714	-10.17931969698208	12.76514524023374	49.01126057604817	125.049681042066	0	0
